Jump_normalized_precision_landing06_filtered_grf
version=1
nRows=20
nColumns=37
inDegrees=yes
endheader
time		1_ground_force_vx		1_ground_force_vy		1_ground_force_vz		1_ground_force_px		1_ground_force_py		1_ground_force_pz		1_ground_torque_x		1_ground_torque_y		1_ground_torque_z		2_ground_force_vx		2_ground_force_vy		2_ground_force_vz		2_ground_force_px		2_ground_force_py		2_ground_force_pz		2_ground_torque_x		2_ground_torque_y		2_ground_torque_z		3_ground_force_vx		3_ground_force_vy		3_ground_force_vz		3_ground_force_px		3_ground_force_py		3_ground_force_pz		3_ground_torque_x		3_ground_torque_y		3_ground_torque_z		4_ground_force_vx		4_ground_force_vy		4_ground_force_vz		4_ground_force_px		4_ground_force_py		4_ground_force_pz		4_ground_torque_x		4_ground_torque_y		4_ground_torque_z		
0.420333		-0.000000		0.000000		0.000000		0.123103		0.000000		0.286396		0.000000		0.000000		-0.000000		0.000000		0.000000		-0.000000		-0.153779		0.000000		0.276501		0.000000		-0.000000		0.000000		-53.931494		500.150368		-14.698065		0.381490		1.274570		1.888330		2.092016		-19.400980		0.570145		84.292180		614.454413		-3.072186		-0.351747		1.266859		1.875896		3.529315		25.727219		-0.128636		
0.423237		-0.000000		0.000000		0.000000		0.123103		0.000000		0.286396		0.000000		0.000000		-0.000000		0.000000		0.000000		0.000000		-0.153779		0.000000		0.276501		0.000000		-0.000000		0.000000		-51.946400		497.326228		-17.470737		0.381461		1.274562		1.888363		2.023896		-19.376472		0.680687		84.180480		614.057520		-7.348077		-0.351683		1.266871		1.875948		3.536298		25.795651		-0.308687		
0.426141		-0.000000		0.000000		0.000000		0.123103		0.000000		0.286396		0.000000		0.000000		-0.000000		0.000000		0.000000		0.000000		-0.153779		0.000000		0.276501		0.000000		-0.000000		0.000000		-49.952846		494.310144		-20.397444		0.381434		1.274547		1.888386		1.955008		-19.345865		0.798300		84.025990		613.097635		-11.346989		-0.351641		1.266879		1.876001		3.542500		25.847937		-0.478388		
0.429045		0.000000		0.000000		0.000000		0.123103		0.000000		0.286396		0.000000		0.000000		-0.000000		0.000000		0.000000		0.000000		-0.153779		0.000000		0.276501		0.000000		-0.000000		0.000000		-47.990082		491.091092		-23.456907		0.381411		1.274526		1.888401		1.886712		-19.307071		0.922201		83.828977		611.622146		-14.998807		-0.351623		1.266886		1.876052		3.547568		25.883304		-0.634737		
0.431949		0.000000		-0.000000		-0.000000		0.123103		0.000000		0.286396		-0.000000		-0.000000		0.000000		-0.000000		0.000000		0.000000		-0.153779		0.000000		0.276501		0.000000		-0.000000		0.000000		-46.090636		487.669252		-26.610329		0.381392		1.274498		1.888413		1.820144		-19.258332		1.050859		83.587687		609.678373		-18.322720		-0.351624		1.266895		1.876101		3.550923		25.899994		-0.778376		
0.434854		0.000000		-0.000000		-0.000000		0.123103		0.000000		0.286396		-0.000000		-0.000000		0.000000		-0.000000		0.000000		0.000000		-0.153779		0.000000		0.276501		0.000000		-0.000000		0.000000		-44.274688		484.057161		-29.811928		0.381379		1.274465		1.888423		1.756006		-19.198510		1.182394		83.296156		607.291185		-21.420772		-0.351637		1.266908		1.876148		3.551814		25.895376		-0.913402		
0.437758		0.000000		-0.000000		-0.000000		0.123103		0.000000		0.286396		-0.000000		-0.000000		0.000000		-0.000000		-0.000000		-0.000000		-0.153779		0.000000		0.276501		-0.000000		0.000000		-0.000000		-42.540193		480.277333		-33.015585		0.381373		1.274428		1.888438		1.694201		-19.127494		1.314880		82.949130		604.452585		-24.465009		-0.351655		1.266930		1.876189		3.549632		25.866268		-1.046931		
0.440662		0.000000		-0.000000		-0.000000		0.123103		0.000000		0.286396		-0.000000		-0.000000		0.000000		-0.000000		-0.000000		-0.000000		-0.153779		0.000000		0.276501		-0.000000		0.000000		-0.000000		-40.858654		476.357062		-36.183372		0.381375		1.274388		1.888454		1.633677		-19.046498		1.446747		82.548113		601.128024		-27.651826		-0.351667		1.266958		1.876224		3.544214		25.809508		-1.187238		
0.443566		0.000000		-0.000000		-0.000000		0.123103		0.000000		0.286396		-0.000000		-0.000000		0.000000		-0.000000		-0.000000		-0.000000		-0.153779		0.000000		0.276501		-0.000000		0.000000		-0.000000		-39.177830		472.324029		-39.297157		0.381385		1.274348		1.888472		1.572513		-18.958069		1.577305		82.105059		597.279815		-31.111349		-0.351670		1.266993		1.876254		3.536044		25.723236		-1.339884		
0.446470		-0.000000		0.000000		-0.000000		0.123103		0.000000		0.286396		0.000000		0.000000		-0.000000		-0.000000		-0.000000		-0.000000		-0.153779		0.000000		0.276501		-0.000000		0.000000		-0.000000		-37.436652		468.202765		-42.359892		0.381400		1.274308		1.888492		1.508446		-18.865430		1.706820		81.637474		592.889491		-34.889881		-0.351663		1.267033		1.876280		3.526089		25.608104		-1.506966		
0.449374		-0.000000		0.000000		0.000000		0.123103		0.000000		0.286396		0.000000		0.000000		-0.000000		0.000000		-0.000000		-0.000000		-0.153779		0.000000		0.276501		-0.000000		0.000000		-0.000000		-35.588752		464.011557		-45.399477		0.381415		1.274271		1.888513		1.439726		-18.771390		1.836620		81.161032		587.977180		-38.934603		-0.351650		1.267071		1.876303		3.515463		25.468032		-1.686442		
0.452278		-0.000000		0.000000		0.000000		0.123103		0.000000		0.286396		0.000000		0.000000		-0.000000		0.000000		0.000000		-0.000000		-0.153779		0.000000		0.276501		0.000000		-0.000000		0.000000		-33.623532		459.757934		-48.466523		0.381428		1.274238		1.888538		1.365917		-18.677168		1.968905		80.682673		582.610599		-43.115624		-0.351638		1.267108		1.876329		3.505011		25.309727		-1.873030		
0.455182		-0.000000		0.000000		0.000000		0.123103		0.000000		0.286396		0.000000		0.000000		-0.000000		0.000000		0.000000		0.000000		-0.153779		0.000000		0.276501		0.000000		-0.000000		0.000000		-31.570222		455.433279		-51.629627		0.381432		1.274211		1.888568		1.288061		-18.581654		2.106491		80.198781		576.891077		-47.270120		-0.351635		1.267140		1.876361		3.495035		25.140708		-2.060020		
0.458086		-0.000000		0.000000		0.000000		0.123103		0.000000		0.286396		0.000000		0.000000		-0.000000		0.000000		0.000000		0.000000		-0.153779		0.000000		0.276501		0.000000		-0.000000		0.000000		-29.487316		451.013177		-54.964277		0.381423		1.274193		1.888608		1.208322		-18.481498		2.252314		79.694175		570.934156		-51.275039		-0.351645		1.267166		1.876401		3.485077		24.967316		-2.242293		
0.460990		0.000000		0.000000		0.000000		0.123103		0.000000		0.286396		0.000000		0.000000		-0.000000		0.000000		0.000000		0.000000		-0.153779		0.000000		0.276501		0.000000		-0.000000		0.000000		-27.442162		446.464430		-58.519858		0.381403		1.274186		1.888659		1.129237		-18.371872		2.408074		79.141457		564.841715		-55.119464		-0.351667		1.267190		1.876450		3.473828		24.793115		-2.419409		
0.463894		0.000000		-0.000000		-0.000000		0.123103		0.000000		0.286396		-0.000000		-0.000000		0.000000		-0.000000		0.000000		0.000000		-0.153779		0.000000		0.276501		0.000000		-0.000000		0.000000		-25.493676		441.750857		-62.316738		0.381373		1.274192		1.888719		1.053054		-18.247203		2.574093		78.508524		558.683403		-58.864332		-0.351696		1.267213		1.876506		3.459503		24.618563		-2.593879		
0.466798		0.000000		-0.000000		-0.000000		0.123103		0.000000		0.286396		-0.000000		-0.000000		0.000000		-0.000000		0.000000		0.000000		-0.153779		0.000000		0.276501		0.000000		-0.000000		0.000000		-23.675858		436.842616		-66.340232		0.381337		1.274212		1.888789		0.981102		-18.102309		2.749075		77.763330		552.484990		-62.621174		-0.351723		1.267240		1.876570		3.440176		24.441415		-2.770307		
0.469702		0.000000		-0.000000		-0.000000		0.123103		0.000000		0.286396		-0.000000		-0.000000		0.000000		-0.000000		-0.000000		-0.000000		-0.153779		0.000000		0.276501		-0.000000		0.000000		-0.000000		-21.987526		431.718177		-70.542523		0.381298		1.274246		1.888866		0.913345		-17.933268		2.930290		76.876057		546.225572		-66.515025		-0.351742		1.267271		1.876638		3.413999		24.257408		-2.953881		
0.472606		0.000000		-0.000000		-0.000000		0.123103		0.000000		0.286396		-0.000000		-0.000000		0.000000		-0.000000		-0.000000		-0.000000		-0.153779		0.000000		0.276501		-0.000000		0.000000		-0.000000		-20.388155		426.364127		-74.845022		0.381259		1.274294		1.888947		0.848228		-17.738449		3.113853		75.822319		539.841230		-70.653692		-0.351748		1.267307		1.876710		3.379425		24.060895		-3.149062		
0.475510		0.000000		-0.000000		-0.000000		0.123103		0.000000		0.286396		-0.000000		-0.000000		0.000000		-0.000000		-0.000000		-0.000000		-0.153779		0.000000		0.276501		-0.000000		0.000000		-0.000000		-18.802933		420.770806		-79.138164		0.381222		1.274352		1.889029		0.782871		-17.519038		3.294964		74.585675		533.231743		-75.095092		-0.351736		1.267345		1.876785		3.335409		23.845679		-3.358191		
